<svg width="32" height="32" viewBox="0 0 32 32" fill="none" xmlns="http://www.w3.org/2000/svg">
<path d="M16 31C24.2843 31 31 24.2843 31 16C31 7.71573 24.2843 1 16 1C7.71573 1 1 7.71573 1 16C1 24.2843 7.71573 31 16 31Z" stroke="white" stroke-width="0.5" stroke-miterlimit="10"/>
<path d="M20.7777 10.2021C20.193 10.2021 19.7207 10.6745 19.7207 11.2592C19.7207 11.8439 20.193 12.3162 20.7777 12.3162C21.3624 12.3162 21.8347 11.8439 21.8347 11.2592C21.8347 10.677 21.3624 10.2021 20.7777 10.2021Z" fill="white"/>
<path d="M16.0744 11.5586C13.6259 11.5586 11.6318 13.5526 11.6318 16.0011C11.6318 18.4497 13.6259 20.4437 16.0744 20.4437C18.5229 20.4437 20.5169 18.4497 20.5169 16.0011C20.5169 13.5526 18.5255 11.5586 16.0744 11.5586ZM16.0744 18.848C14.5042 18.848 13.2276 17.5714 13.2276 16.0011C13.2276 14.4309 14.5042 13.1543 16.0744 13.1543C17.6446 13.1543 18.9212 14.4309 18.9212 16.0011C18.9212 17.5714 17.6446 18.848 16.0744 18.848Z" fill="white"/>
<path d="M19.6028 25.0207H12.4003C9.41306 25.0207 6.98242 22.5901 6.98242 19.6028V12.4003C6.98242 9.41306 9.41306 6.98242 12.4003 6.98242H19.6028C22.5901 6.98242 25.0207 9.41306 25.0207 12.4003V19.6028C25.0207 22.5901 22.5901 25.0207 19.6028 25.0207ZM12.4003 8.67774C10.3475 8.67774 8.67774 10.3475 8.67774 12.4003V19.6028C8.67774 21.6556 10.3475 23.3254 12.4003 23.3254H19.6028C21.6556 23.3254 23.3254 21.6556 23.3254 19.6028V12.4003C23.3254 10.3475 21.6556 8.67774 19.6028 8.67774H12.4003Z" fill="white"/>
</svg>
