<svg width="32" height="32" viewBox="0 0 32 32" fill="none" xmlns="http://www.w3.org/2000/svg">
<path d="M16 31C24.2843 31 31 24.2843 31 16C31 7.71573 24.2843 1 16 1C7.71573 1 1 7.71573 1 16C1 24.2843 7.71573 31 16 31Z" stroke="black" stroke-width="0.5" stroke-miterlimit="10"/>
<g clip-path="url(#clip0_2065_1686)">
<path d="M12.411 25.4616C12.9088 24.6281 13.5514 23.4414 13.8061 22.4573C13.9566 21.8726 14.5818 19.4993 14.5818 19.4993C14.987 20.275 16.1737 20.9291 17.4356 20.9291C21.1867 20.9291 23.8958 17.479 23.8958 13.1896C23.8958 8.90014 20.5384 6 16.2258 6C10.8538 6 8 9.60637 8 13.5311C8 15.3546 8.9725 17.6295 10.5239 18.3531C10.7612 18.4631 10.8886 18.4168 10.9407 18.1852C10.9812 18.0116 11.1896 17.1664 11.288 16.7728C11.3169 16.6454 11.3054 16.5412 11.2012 16.4139C10.686 15.7887 10.275 14.6425 10.275 13.5716C10.275 10.8278 12.3531 8.17077 15.8958 8.17077C18.9522 8.17077 21.0941 10.2547 21.0941 13.2359C21.0941 16.6049 19.3922 18.9378 17.1809 18.9378C15.9595 18.9378 15.0449 17.9247 15.3401 16.686C15.6932 15.2041 16.3705 13.6122 16.3705 12.5412C16.3705 11.5861 15.8553 10.7873 14.7959 10.7873C13.5456 10.7873 12.5441 12.0781 12.5441 13.809C12.5441 14.9088 12.9146 15.6556 12.9146 15.6556C12.9146 15.6556 11.6816 20.8712 11.4559 21.8437C11.2301 22.8162 11.288 24.1187 11.3864 25.0912C11.3864 25.0912 11.4559 25.9595 11.7511 25.9884C12.1042 26.0232 12.4226 25.4559 12.4226 25.4559L12.411 25.4616Z" fill="black"/>
</g>
<defs>
<clipPath id="clip0_2065_1686">
<rect width="15.8958" height="20" fill="white" transform="translate(8 6)"/>
</clipPath>
</defs>
</svg>
