<svg xmlns="http://www.w3.org/2000/svg" width="137" height="25" viewBox="0 0 137 25" fill="none"><path d="M4.632 18.788C3.832 18.788 3.112 18.708 2.472 18.548C1.848 18.404 1.352 18.26 0.984 18.116C0.616 17.956 0.432 17.876 0.432 17.876L0.288 17.564C0.288 17.564 0.32 17.452 0.384 17.228C0.448 16.988 0.528 16.676 0.624 16.292C0.72 15.892 0.816 15.452 0.912 14.972C1.024 14.492 1.112 13.996 1.176 13.484L3.096 13.316C3 14.196 2.992 14.892 3.072 15.404C3.168 15.9 3.384 16.252 3.72 16.46C4.072 16.668 4.576 16.772 5.232 16.772C6.032 16.772 6.68 16.58 7.176 16.196C7.672 15.812 7.92 15.308 7.92 14.684C7.92 14.14 7.672 13.684 7.176 13.316C6.68 12.932 6.096 12.564 5.424 12.212C4.848 11.892 4.272 11.548 3.696 11.18C3.12 10.812 2.64 10.372 2.256 9.86C1.872 9.348 1.68 8.716 1.68 7.964C1.68 6.972 1.96 6.092 2.52 5.324C3.08 4.556 3.848 3.948 4.824 3.5C5.816 3.052 6.944 2.828 8.208 2.828C8.976 2.828 9.664 2.884 10.272 2.996C10.896 3.092 11.392 3.196 11.76 3.308C12.128 3.404 12.312 3.452 12.312 3.452L12.432 3.764C12.432 3.764 12.376 3.956 12.264 4.34C12.152 4.708 12.016 5.204 11.856 5.828C11.696 6.452 11.544 7.132 11.4 7.868L9.648 8.012L9.456 7.844C9.456 7.844 9.472 7.772 9.504 7.628C9.536 7.484 9.568 7.308 9.6 7.1C9.632 6.892 9.648 6.716 9.648 6.572C9.648 5.996 9.48 5.588 9.144 5.348C8.824 5.092 8.304 4.964 7.584 4.964C6.88 4.964 6.288 5.148 5.808 5.516C5.344 5.884 5.112 6.348 5.112 6.908C5.112 7.34 5.272 7.716 5.592 8.036C5.912 8.356 6.32 8.66 6.816 8.948C7.28 9.22 7.776 9.5 8.304 9.788C8.848 10.076 9.352 10.396 9.816 10.748C10.296 11.084 10.688 11.484 10.992 11.948C11.296 12.412 11.448 12.964 11.448 13.604C11.448 14.612 11.168 15.508 10.608 16.292C10.048 17.076 9.256 17.692 8.232 18.14C7.224 18.572 6.024 18.788 4.632 18.788ZM16.8932 18.788C15.8532 18.788 15.0212 18.412 14.3972 17.66C13.7892 16.892 13.4852 15.844 13.4852 14.516C13.4852 13.476 13.6292 12.516 13.9172 11.636C14.2212 10.74 14.6372 9.956 15.1652 9.284C15.7092 8.612 16.3412 8.092 17.0612 7.724C17.7812 7.34 18.5652 7.148 19.4132 7.148C20.5012 7.148 21.3412 7.5 21.9332 8.204C22.5412 8.892 22.8452 9.876 22.8452 11.156C22.8452 12.228 22.6932 13.228 22.3892 14.156C22.1012 15.084 21.6852 15.9 21.1412 16.604C20.6132 17.292 19.9892 17.828 19.2692 18.212C18.5492 18.596 17.7572 18.788 16.8932 18.788ZM17.8532 16.916C18.2852 16.916 18.6532 16.74 18.9572 16.388C19.2612 16.036 19.4932 15.516 19.6532 14.828C19.8292 14.124 19.9172 13.268 19.9172 12.26C19.9172 11.268 19.7892 10.516 19.5332 10.004C19.2932 9.492 18.9252 9.236 18.4292 9.236C18.0132 9.236 17.6452 9.404 17.3252 9.74C17.0212 10.076 16.7812 10.564 16.6052 11.204C16.4452 11.828 16.3652 12.596 16.3652 13.508C16.3652 14.612 16.4932 15.46 16.7492 16.052C17.0212 16.628 17.3892 16.916 17.8532 16.916ZM23.7184 22.796C24.1344 22.748 24.4304 22.62 24.6064 22.412C24.7984 22.204 24.9664 21.804 25.1104 21.212C25.1744 20.924 25.2624 20.468 25.3744 19.844C25.4864 19.236 25.6064 18.532 25.7344 17.732C25.8624 16.932 25.9904 16.116 26.1184 15.284C26.2624 14.436 26.3824 13.636 26.4784 12.884C26.5904 12.116 26.6784 11.468 26.7424 10.94C26.8064 10.412 26.8384 10.068 26.8384 9.908C26.8384 9.604 26.7664 9.38 26.6224 9.236C26.4784 9.092 26.2464 9.02 25.9264 9.02H25.0624L25.3024 7.628C25.6704 7.628 26.1104 7.62 26.6224 7.604C27.1344 7.588 27.6704 7.564 28.2304 7.532C28.8064 7.484 29.3424 7.452 29.8384 7.436L30.1264 7.796C29.6464 9.252 29.2544 10.788 28.9504 12.404L29.0944 12.452C29.5584 11.508 29.9904 10.708 30.3904 10.052C30.7904 9.38 31.1824 8.812 31.5664 8.348C31.9664 7.868 32.3664 7.468 32.7664 7.148C33.7104 7.148 34.4544 7.492 34.9984 8.18C35.5584 8.852 35.8384 9.764 35.8384 10.916C35.8384 11.844 35.6784 12.764 35.3584 13.676C35.0384 14.588 34.6064 15.412 34.0624 16.148C33.5344 16.884 32.9424 17.476 32.2864 17.924C31.6304 18.372 30.9744 18.596 30.3184 18.596L28.0144 18.212L27.5584 21.38C27.4944 21.844 27.5344 22.156 27.6784 22.316C27.8224 22.476 28.1184 22.556 28.5664 22.556H29.5984L29.6224 22.7L29.3824 23.996C28.8384 23.996 28.2144 24.004 27.5104 24.02C26.8224 24.036 26.1264 24.052 25.4224 24.068C24.7184 24.1 24.0704 24.132 23.4784 24.164L23.7184 22.796ZM32.2384 9.716C32.0304 9.716 31.7264 9.996 31.3264 10.556C30.9424 11.1 30.5264 11.844 30.0784 12.788C29.6304 13.716 29.1824 14.756 28.7344 15.908C29.1024 16.1 29.5024 16.26 29.9344 16.388C30.3824 16.5 30.7664 16.556 31.0864 16.556C31.3904 16.556 31.6864 16.332 31.9744 15.884C32.2784 15.436 32.5184 14.86 32.6944 14.156C32.8864 13.452 32.9824 12.74 32.9824 12.02C32.9824 11.604 32.9424 11.228 32.8624 10.892C32.7984 10.54 32.7104 10.26 32.5984 10.052C32.4864 9.828 32.3664 9.716 32.2384 9.716ZM46.5105 16.004C46.5745 16.004 46.6545 15.98 46.7505 15.932C46.8465 15.884 46.9905 15.772 47.1825 15.596C47.3905 15.42 47.7025 15.148 48.1185 14.78L48.5265 14.852L48.9105 15.692C48.2065 16.428 47.5985 17.02 47.0865 17.468C46.5905 17.916 46.1585 18.244 45.7905 18.452C45.4225 18.66 45.0945 18.764 44.8065 18.764C44.0545 18.764 43.6785 18.42 43.6785 17.732C43.6785 17.476 43.7265 17.124 43.8225 16.676C43.9345 16.228 44.0785 15.74 44.2545 15.212C44.4305 14.668 44.5985 14.124 44.7585 13.58C44.9185 13.036 45.0545 12.54 45.1665 12.092C45.2785 11.628 45.3345 11.268 45.3345 11.012C45.3345 10.74 45.2785 10.532 45.1665 10.388C45.0545 10.228 44.8945 10.148 44.6865 10.148C44.4305 10.148 44.1025 10.404 43.7025 10.916C43.3025 11.412 42.8705 12.108 42.4065 13.004C41.9425 13.884 41.4785 14.908 41.0145 16.076L40.7985 17.828C40.7825 17.956 40.6385 18.092 40.3665 18.236C40.1105 18.364 39.7985 18.468 39.4305 18.548C39.0785 18.644 38.7265 18.692 38.3745 18.692L38.0625 18.332C38.0625 18.332 38.1025 18.084 38.1825 17.588C38.2625 17.092 38.3665 16.436 38.4945 15.62C38.6385 14.804 38.7825 13.9 38.9265 12.908C39.0865 11.9 39.2385 10.884 39.3825 9.86C39.5425 8.836 39.6945 7.868 39.8385 6.956C39.9825 6.044 40.0945 5.276 40.1745 4.652C40.2705 4.012 40.3265 3.588 40.3425 3.38C40.3745 3.028 40.3185 2.78 40.1745 2.636C40.0465 2.476 39.8065 2.396 39.4545 2.396H38.6145L38.8065 1.028C39.2545 1.028 39.7425 1.02 40.2705 1.004C40.7985 0.972 41.3025 0.947999 41.7825 0.931999C42.2625 0.899999 42.6545 0.875999 42.9585 0.86C43.2625 0.827999 43.4145 0.811999 43.4145 0.811999L43.6785 1.196C43.6785 1.196 43.6305 1.42 43.5345 1.868C43.4385 2.3 43.3105 2.908 43.1505 3.692C42.9905 4.46 42.8065 5.332 42.5985 6.308C42.4065 7.284 42.2065 8.308 41.9985 9.38C41.8065 10.452 41.6305 11.516 41.4705 12.572L41.6145 12.596C42.3025 11.188 42.9825 10.02 43.6545 9.092C44.3425 8.148 44.9825 7.5 45.5745 7.148C46.3585 7.148 46.9985 7.38 47.4945 7.844C47.9905 8.292 48.2385 8.868 48.2385 9.572C48.2385 9.908 48.1585 10.356 47.9985 10.916C47.8545 11.46 47.6705 12.044 47.4465 12.668C47.2385 13.292 47.0385 13.892 46.8465 14.468C46.6545 15.044 46.5185 15.532 46.4385 15.932L46.5105 16.004ZM54.1397 16.052C54.2517 16.052 54.3957 15.98 54.5717 15.836C54.7477 15.692 55.1397 15.356 55.7477 14.828L56.1557 14.876L56.5397 15.716C55.8677 16.452 55.2757 17.044 54.7637 17.492C54.2677 17.94 53.8277 18.268 53.4437 18.476C53.0757 18.684 52.7397 18.788 52.4357 18.788C51.6997 18.788 51.3317 18.396 51.3317 17.612C51.5717 16.204 51.7717 14.948 51.9317 13.844C52.1077 12.74 52.2437 11.852 52.3397 11.18C52.4357 10.492 52.4837 10.076 52.4837 9.932C52.4837 9.612 52.4117 9.38 52.2677 9.236C52.1237 9.092 51.8917 9.02 51.5717 9.02H50.7317L50.9477 7.628C51.3157 7.628 51.7557 7.62 52.2677 7.604C52.7957 7.588 53.3397 7.564 53.8997 7.532C54.4597 7.484 54.9957 7.452 55.5077 7.436L55.7957 7.796C55.5717 8.564 55.3477 9.436 55.1237 10.412C54.8997 11.372 54.6917 12.34 54.4997 13.316C54.3237 14.276 54.1797 15.156 54.0677 15.956L54.1397 16.052ZM54.1637 5.228C53.6837 5.228 53.3237 5.092 53.0837 4.82C52.8437 4.548 52.7237 4.196 52.7237 3.764C52.7237 3.156 52.9157 2.652 53.2997 2.252C53.6997 1.836 54.2037 1.628 54.8117 1.628C55.2917 1.628 55.6517 1.772 55.8917 2.06C56.1477 2.332 56.2757 2.676 56.2757 3.092C56.2757 3.7 56.0757 4.212 55.6757 4.628C55.2757 5.028 54.7717 5.228 54.1637 5.228ZM66.7691 16.052C66.8491 16.052 66.9371 16.02 67.0331 15.956C67.1451 15.892 67.3051 15.772 67.5131 15.596C67.7211 15.404 68.0091 15.148 68.3771 14.828L68.7851 14.876L69.1691 15.716C68.3851 16.516 67.7371 17.14 67.2251 17.588C66.7291 18.036 66.3131 18.348 65.9771 18.524C65.6411 18.7 65.3131 18.788 64.9931 18.788C64.6891 18.788 64.4491 18.708 64.2731 18.548C64.0971 18.404 64.0091 18.196 64.0091 17.924C64.0091 17.748 64.0811 17.316 64.2251 16.628C64.3691 15.94 64.5771 15.004 64.8491 13.82L64.6571 13.796C63.9371 15.092 63.2651 16.132 62.6411 16.916C62.0331 17.7 61.4091 18.324 60.7691 18.788C59.9211 18.788 59.2571 18.484 58.7771 17.876C58.3131 17.268 58.0811 16.42 58.0811 15.332C58.0811 14.356 58.2411 13.396 58.5611 12.452C58.8971 11.492 59.3371 10.628 59.8811 9.86C60.4411 9.092 61.0651 8.484 61.7531 8.036C62.4411 7.572 63.1371 7.34 63.8411 7.34L65.9291 7.748L66.0971 7.22L66.3851 7.076L68.2331 7.388L68.4251 7.796C68.2011 8.692 67.9771 9.636 67.7531 10.628C67.5291 11.604 67.3211 12.556 67.1291 13.484C66.9531 14.396 66.8091 15.22 66.6971 15.956L66.7691 16.052ZM61.5371 16.052C61.7131 16.052 61.9451 15.884 62.2331 15.548C62.5211 15.196 62.8331 14.732 63.1691 14.156C63.5211 13.58 63.8731 12.924 64.2251 12.188C64.5931 11.452 64.9291 10.684 65.2331 9.884C64.8971 9.676 64.5371 9.508 64.1531 9.38C63.7691 9.252 63.4331 9.188 63.1451 9.188C62.7771 9.188 62.4251 9.42 62.0891 9.884C61.7691 10.348 61.5051 10.948 61.2971 11.684C61.0891 12.404 60.9851 13.172 60.9851 13.988C60.9851 14.58 61.0331 15.076 61.1291 15.476C61.2411 15.86 61.3771 16.052 61.5371 16.052Z" fill="#2B221D"></path><path d="M79.7436 15.812C79.7436 16.196 79.8396 16.444 80.0316 16.556C80.2236 16.668 80.5836 16.724 81.1116 16.724C81.8476 16.724 82.4396 16.692 82.8876 16.628C83.3356 16.564 83.6956 16.444 83.9676 16.268C84.2396 16.076 84.4556 15.796 84.6156 15.428C84.7756 15.06 84.9356 14.564 85.0956 13.94L87.0396 13.796L87.1836 14.012C87.1836 14.012 87.1196 14.228 86.9916 14.66C86.8636 15.076 86.7036 15.62 86.5116 16.292C86.3356 16.948 86.1596 17.66 85.9836 18.428L85.7436 18.668C85.7436 18.668 85.5836 18.66 85.2636 18.644C84.9596 18.644 84.5516 18.628 84.0396 18.596C83.5276 18.58 82.9516 18.564 82.3116 18.548C81.6876 18.532 81.0476 18.516 80.3916 18.5C79.7516 18.5 79.1436 18.5 78.5676 18.5C77.8796 18.5 77.2316 18.516 76.6236 18.548C76.0156 18.596 75.5196 18.636 75.1356 18.668C74.7516 18.716 74.5596 18.74 74.5596 18.74L74.9196 17.18C75.5756 17.084 76.0396 16.892 76.3116 16.604C76.5836 16.316 76.7596 15.82 76.8396 15.116L77.9916 5.9C78.0556 5.388 78.0476 5.044 77.9676 4.868C77.8876 4.692 77.6956 4.604 77.3916 4.604C77.2796 4.604 77.1356 4.612 76.9596 4.628C76.7836 4.644 76.6956 4.652 76.6956 4.652L76.5756 4.46L76.9116 3.044C76.9116 3.044 77.0476 3.052 77.3196 3.068C77.5916 3.068 77.9436 3.076 78.3756 3.092C78.8076 3.092 79.2636 3.1 79.7436 3.116C80.2396 3.116 80.7036 3.116 81.1356 3.116C82.2396 3.116 83.2316 3.108 84.1116 3.092C85.0076 3.076 85.7916 3.044 86.4636 2.996C87.1516 2.948 87.7356 2.892 88.2156 2.828L88.3596 3.068C88.3596 3.068 88.2956 3.276 88.1676 3.692C88.0396 4.092 87.8956 4.62 87.7356 5.276C87.5756 5.932 87.4316 6.636 87.3036 7.388L85.1916 7.532C85.1916 7.532 85.2076 7.452 85.2396 7.292C85.2716 7.132 85.3036 6.948 85.3356 6.74C85.3836 6.516 85.4076 6.316 85.4076 6.14C85.4076 5.804 85.3276 5.564 85.1676 5.42C85.0236 5.26 84.7436 5.156 84.3276 5.108C83.9276 5.044 83.3516 5.012 82.5996 5.012C82.2316 5.012 81.9596 5.028 81.7836 5.06C81.6076 5.092 81.4876 5.172 81.4236 5.3C81.3596 5.412 81.3036 5.588 81.2556 5.828L80.6316 9.668C80.8716 9.668 81.2076 9.676 81.6396 9.692C82.0716 9.692 82.4556 9.692 82.7916 9.692C82.9836 9.692 83.2236 9.684 83.5116 9.668C83.8156 9.652 84.1196 9.628 84.4236 9.596C84.7276 9.564 84.9836 9.54 85.1916 9.524C85.3996 9.492 85.5036 9.476 85.5036 9.476L85.6476 9.692L85.0956 11.684C85.0956 11.684 84.9196 11.676 84.5676 11.66C84.2316 11.644 83.8236 11.636 83.3436 11.636C82.8796 11.62 82.4556 11.612 82.0716 11.612C81.7356 11.612 81.4076 11.628 81.0876 11.66C80.7676 11.692 80.5036 11.724 80.2956 11.756C80.1676 12.684 80.0396 13.508 79.9116 14.228C79.7996 14.932 79.7436 15.46 79.7436 15.812ZM92.8489 16.052C92.9609 16.052 93.1049 15.98 93.2809 15.836C93.4569 15.692 93.8489 15.356 94.4569 14.828L94.8649 14.876L95.2489 15.716C94.5609 16.452 93.9609 17.052 93.4489 17.516C92.9529 17.964 92.5209 18.292 92.1529 18.5C91.7849 18.692 91.4409 18.788 91.1209 18.788C90.3849 18.788 90.0169 18.42 90.0169 17.684C90.0169 17.604 90.0569 17.292 90.1369 16.748C90.2169 16.204 90.3209 15.524 90.4489 14.708C90.5769 13.892 90.7129 13.004 90.8569 12.044C91.0169 11.068 91.1769 10.092 91.3369 9.116C91.4969 8.124 91.6409 7.212 91.7689 6.38C91.8969 5.548 92.0009 4.86 92.0809 4.316C92.1609 3.756 92.2009 3.412 92.2009 3.284C92.2009 2.692 91.8969 2.396 91.2889 2.396H90.4489L90.6409 1.028C91.0889 1.028 91.5769 1.02 92.1049 1.004C92.6329 0.972 93.1369 0.947999 93.6169 0.931999C94.0969 0.899999 94.4809 0.875999 94.7689 0.86C95.0729 0.827999 95.2249 0.811999 95.2249 0.811999L95.5129 1.196C95.5129 1.196 95.4649 1.436 95.3689 1.916C95.2729 2.396 95.1369 3.052 94.9609 3.884C94.7849 4.716 94.5929 5.652 94.3849 6.692C94.1929 7.716 93.9929 8.788 93.7849 9.908C93.5769 11.012 93.3849 12.084 93.2089 13.124C93.0329 14.164 92.8809 15.108 92.7529 15.956L92.8489 16.052ZM99.9908 16.052C100.103 16.052 100.247 15.98 100.423 15.836C100.599 15.692 100.991 15.356 101.599 14.828L102.007 14.876L102.391 15.716C101.703 16.452 101.103 17.052 100.591 17.516C100.095 17.964 99.6628 18.292 99.2948 18.5C98.9268 18.692 98.5828 18.788 98.2628 18.788C97.5268 18.788 97.1588 18.42 97.1588 17.684C97.1588 17.604 97.1988 17.292 97.2788 16.748C97.3588 16.204 97.4628 15.524 97.5908 14.708C97.7188 13.892 97.8548 13.004 97.9988 12.044C98.1588 11.068 98.3188 10.092 98.4788 9.116C98.6388 8.124 98.7828 7.212 98.9108 6.38C99.0388 5.548 99.1428 4.86 99.2228 4.316C99.3028 3.756 99.3428 3.412 99.3428 3.284C99.3428 2.692 99.0388 2.396 98.4308 2.396H97.5908L97.7828 1.028C98.2308 1.028 98.7188 1.02 99.2468 1.004C99.7748 0.972 100.279 0.947999 100.759 0.931999C101.239 0.899999 101.623 0.875999 101.911 0.86C102.215 0.827999 102.367 0.811999 102.367 0.811999L102.655 1.196C102.655 1.196 102.607 1.436 102.511 1.916C102.415 2.396 102.279 3.052 102.103 3.884C101.927 4.716 101.735 5.652 101.527 6.692C101.335 7.716 101.135 8.788 100.927 9.908C100.719 11.012 100.527 12.084 100.351 13.124C100.175 14.164 100.023 15.108 99.8948 15.956L99.9908 16.052ZM107.421 16.052C107.533 16.052 107.677 15.98 107.853 15.836C108.029 15.692 108.421 15.356 109.029 14.828L109.437 14.876L109.821 15.716C109.149 16.452 108.557 17.044 108.045 17.492C107.549 17.94 107.109 18.268 106.725 18.476C106.357 18.684 106.021 18.788 105.717 18.788C104.981 18.788 104.613 18.396 104.613 17.612C104.853 16.204 105.053 14.948 105.213 13.844C105.389 12.74 105.525 11.852 105.621 11.18C105.717 10.492 105.765 10.076 105.765 9.932C105.765 9.612 105.693 9.38 105.549 9.236C105.405 9.092 105.173 9.02 104.853 9.02H104.013L104.229 7.628C104.597 7.628 105.037 7.62 105.549 7.604C106.077 7.588 106.621 7.564 107.181 7.532C107.741 7.484 108.277 7.452 108.789 7.436L109.077 7.796C108.853 8.564 108.629 9.436 108.405 10.412C108.181 11.372 107.973 12.34 107.781 13.316C107.605 14.276 107.461 15.156 107.349 15.956L107.421 16.052ZM107.445 5.228C106.965 5.228 106.605 5.092 106.365 4.82C106.125 4.548 106.005 4.196 106.005 3.764C106.005 3.156 106.197 2.652 106.581 2.252C106.981 1.836 107.485 1.628 108.093 1.628C108.573 1.628 108.933 1.772 109.173 2.06C109.429 2.332 109.557 2.676 109.557 3.092C109.557 3.7 109.357 4.212 108.957 4.628C108.557 5.028 108.053 5.228 107.445 5.228ZM112.442 14.756C112.474 15.428 112.682 15.956 113.066 16.34C113.466 16.724 113.978 16.916 114.602 16.916C115.002 16.916 115.33 16.812 115.586 16.604C115.842 16.38 115.97 16.108 115.97 15.788C115.97 15.436 115.818 15.132 115.514 14.876C115.21 14.604 114.85 14.332 114.434 14.06C114.082 13.804 113.73 13.54 113.378 13.268C113.026 12.98 112.73 12.652 112.49 12.284C112.266 11.916 112.154 11.476 112.154 10.964C112.154 10.26 112.354 9.62 112.754 9.044C113.154 8.468 113.69 8.012 114.362 7.676C115.05 7.324 115.81 7.148 116.642 7.148C117.25 7.148 117.818 7.236 118.346 7.412C118.89 7.572 119.314 7.812 119.618 8.132C119.442 8.58 119.25 9.02 119.042 9.452C118.85 9.884 118.666 10.244 118.49 10.532H118.034C117.858 10.084 117.61 9.74 117.29 9.5C116.97 9.244 116.618 9.116 116.234 9.116C115.93 9.116 115.666 9.212 115.442 9.404C115.218 9.596 115.106 9.836 115.106 10.124C115.106 10.332 115.17 10.532 115.298 10.724C115.442 10.916 115.618 11.092 115.826 11.252C116.098 11.476 116.41 11.708 116.762 11.948C117.114 12.172 117.45 12.428 117.77 12.716C118.09 12.988 118.354 13.3 118.562 13.652C118.77 14.004 118.874 14.412 118.874 14.876C118.874 15.58 118.658 16.236 118.226 16.844C117.794 17.436 117.218 17.908 116.498 18.26C115.794 18.612 115.002 18.788 114.122 18.788C113.29 18.788 112.57 18.66 111.962 18.404C111.37 18.132 111.002 17.78 110.858 17.348C110.906 17.076 110.994 16.78 111.122 16.46C111.25 16.124 111.386 15.804 111.53 15.5C111.69 15.18 111.842 14.924 111.986 14.732L112.442 14.756Z" fill="#A69A79"></path><path d="M130.246 14.216C129.49 14.216 128.776 14.072 128.104 13.784C127.444 13.496 126.862 13.106 126.358 12.614C125.866 12.11 125.476 11.528 125.188 10.868C124.912 10.196 124.774 9.482 124.774 8.726C124.774 7.97 124.912 7.262 125.188 6.602C125.476 5.93 125.866 5.348 126.358 4.856C126.862 4.352 127.444 3.956 128.104 3.668C128.776 3.38 129.49 3.236 130.246 3.236C131.002 3.236 131.71 3.38 132.37 3.668C133.042 3.956 133.624 4.352 134.116 4.856C134.62 5.348 135.016 5.93 135.304 6.602C135.592 7.262 135.736 7.97 135.736 8.726C135.736 9.482 135.592 10.196 135.304 10.868C135.016 11.528 134.62 12.11 134.116 12.614C133.624 13.106 133.042 13.496 132.37 13.784C131.71 14.072 131.002 14.216 130.246 14.216ZM130.084 11.66C129.472 11.66 128.962 11.534 128.554 11.282C128.158 11.03 127.858 10.688 127.654 10.256C127.462 9.824 127.366 9.344 127.366 8.816C127.366 8.204 127.492 7.658 127.744 7.178C127.996 6.698 128.362 6.326 128.842 6.062C129.322 5.798 129.886 5.666 130.534 5.666C130.81 5.666 131.086 5.684 131.362 5.72C131.638 5.756 131.866 5.792 132.046 5.828C132.238 5.864 132.334 5.882 132.334 5.882L132.388 5.972C132.388 5.972 132.352 6.14 132.28 6.476C132.208 6.8 132.16 7.202 132.136 7.682L131.326 7.718C131.326 7.718 131.326 7.67 131.326 7.574C131.338 7.478 131.344 7.382 131.344 7.286C131.344 7.046 131.266 6.86 131.11 6.728C130.966 6.584 130.702 6.512 130.318 6.512C129.838 6.512 129.46 6.674 129.184 6.998C128.92 7.322 128.788 7.826 128.788 8.51C128.788 9.23 128.914 9.8 129.166 10.22C129.418 10.64 129.814 10.85 130.354 10.85C130.726 10.85 131.008 10.748 131.2 10.544C131.404 10.34 131.542 10.016 131.614 9.572L132.406 9.518C132.406 9.518 132.388 9.608 132.352 9.788C132.316 9.968 132.28 10.184 132.244 10.436C132.22 10.688 132.208 10.934 132.208 11.174L132.118 11.318C132.118 11.318 132.028 11.348 131.848 11.408C131.668 11.456 131.428 11.51 131.128 11.57C130.828 11.63 130.48 11.66 130.084 11.66ZM130.246 13.424C130.882 13.424 131.482 13.304 132.046 13.064C132.61 12.824 133.108 12.488 133.54 12.056C133.972 11.624 134.308 11.126 134.548 10.562C134.788 9.986 134.908 9.374 134.908 8.726C134.908 8.078 134.788 7.472 134.548 6.908C134.308 6.332 133.972 5.828 133.54 5.396C133.108 4.964 132.61 4.628 132.046 4.388C131.482 4.148 130.882 4.028 130.246 4.028C129.598 4.028 128.992 4.148 128.428 4.388C127.876 4.628 127.384 4.964 126.952 5.396C126.532 5.828 126.196 6.332 125.944 6.908C125.704 7.472 125.584 8.078 125.584 8.726C125.584 9.374 125.704 9.986 125.944 10.562C126.196 11.126 126.532 11.624 126.952 12.056C127.384 12.488 127.876 12.824 128.428 13.064C128.992 13.304 129.598 13.424 130.246 13.424Z" fill="#2B221D"></path></svg>